<?xml version="1.0" encoding="UTF-8"?><svg id="Layer_2" xmlns="http://www.w3.org/2000/svg" viewBox="0 0 1920 105.88"><defs><style>.cls-1{fill:#a0a0a0;}</style></defs><g id="Layer_1-2"><path class="cls-1" d="M1476.13,27.35c-82.34,25.38-166.38,44.33-244.52,54.82-33.77,6.98-73.03,9.89-116.01,9.2-42.98.7-82.24-2.22-116.01-9.2-43.03-5.77-87.86-14.12-133.2-24.69v.38s-1.2-.43-3.52-1.21c-30.39-7.16-61.01-15.31-91.46-24.36-97.57-20.86-255.97-40.01-405.93,6.53C239.08,78.06,108.83,102.7,0,105.88h0s1920,0,1920,0V34.5c-77.36-21.33-266.77-61.72-443.87-7.15Z"/></g></svg>